<svg xmlns="http://www.w3.org/2000/svg" xmlns:xlink="http://www.w3.org/1999/xlink" width="256" height="256">
	
	<path fill="#534B46" transform="scale(0.249642 0.249642)" d="M501.744 20.4999C508.607 20.5345 515.534 20.3892 522.374 20.9709C523.961 30.8705 526.61 40.5347 528.697 50.3298C533.333 72.0884 538.113 93.6516 543.35 115.274C546.499 128.277 548.634 141.501 552.048 154.428C571.117 157.516 589.09 161.641 607.507 167.502C622.947 147.273 638.656 127.152 653.77 106.687C661.084 96.783 668.567 87.0417 676.015 77.2404C681.573 69.9254 686.943 62.1258 693.46 55.636C698.443 59.0689 703.592 61.8676 709.093 64.3812C704.225 97.4567 696.339 130.068 690.703 163.025C688.891 173.62 686.814 184.156 685.824 194.872C703.9 205.194 722.59 215.613 738.36 229.297C747.903 224.292 757.057 218.068 766.178 212.332L817.315 180.162C826.873 174.062 836.229 167.359 846.103 161.797C851.135 167.508 855.899 173.523 861.216 178.972C844.583 204.245 828.293 229.741 812.35 255.454C806.058 265.445 799.175 275.033 793.216 285.232C807.165 300.906 817.509 319.632 827.88 337.73C841.291 336.531 857.179 332.545 870.718 330.216L961.221 314.785C963.73 320.848 966.182 326.906 968.424 333.073C960.946 339.252 952.613 344.5 944.863 350.345C929.639 361.826 914.594 373.734 898.996 384.698C888.918 391.783 878.913 398.866 869.029 406.224C865.052 409.185 860.604 412.005 857.031 415.438C862.773 434.238 866.514 453.437 869.62 472.814C882.625 475.279 895.488 478.353 908.434 481.095C940.041 487.623 971.563 494.562 1002.99 501.907C1003.01 508.634 1003.12 515.359 1003.33 522.083C983.919 525.929 964.599 531.072 945.276 535.407C920.06 541.065 894.8 546.017 869.728 552.375C867.381 571.799 862.625 590.056 856.585 608.597C866.204 615.855 876.202 622.646 885.927 629.768L969.444 690.912C966.771 696.645 963.748 702.206 960.789 707.795C953.257 706.834 945.663 705.211 938.148 703.987L870.321 692.574C855.87 690.134 841.395 687.428 826.825 685.81C822.854 699.444 803.141 725.998 793.771 738.09C802.208 751.013 810.101 764.31 818.408 777.323C833.262 800.594 848.456 823.837 861.825 848.002C856.839 852.38 852.295 857.204 847.702 861.985C839.265 857.812 831.255 852.377 823.338 847.309C812.554 840.446 801.831 833.489 791.169 826.439C774.128 815.137 756.699 804.44 739.646 793.14C724.503 805.874 703.432 817.385 686.434 827.677L699.267 903.586C702.387 922.797 705.042 941.929 708.891 961.029C703.527 963.775 697.907 965.865 693.012 969.463C683.348 958.795 674.556 945.601 665.96 933.925L629.121 884.542C622.203 875.128 615.541 864.639 607.594 856.092C589.582 861.522 571.278 864.297 552.836 867.661L534.805 946.168C530.86 963.457 526.448 980.756 523.518 998.25C523.342 999.811 523.338 1001.41 522.463 1002.76C515.781 1003.66 508.365 1003.05 501.595 1003.02C498.575 983.618 493.731 964.598 489.833 945.364C486.3 927.927 482.657 910.642 478.522 893.334C476.579 885.199 474.981 876.755 472.118 868.887C466.114 867.551 459.916 866.915 453.846 865.914C441.192 863.828 428.423 861.391 416.143 857.651C410.478 865.716 404.3 873.38 398.432 881.293C376.757 910.518 354.419 939.188 332.511 968.236C326.9 965.552 321.344 962.757 315.845 959.85C324.184 916.154 330.913 872.13 339.751 828.514C320.518 818.036 302.819 806.441 285.159 793.544C275.684 799.165 266.631 805.409 257.311 811.272L210.261 840.538C199.405 847.328 188.6 854.455 177.308 860.502C172.784 855.722 167.696 851.547 162.948 846.996C171.927 829.819 183.031 813.583 193.573 797.347C201.309 785.431 208.634 773.296 216.176 761.262C220.676 754.082 225.762 747.143 229.764 739.674C224.073 731.057 217.815 722.857 212.088 714.28C206.064 705.26 200.556 695.83 194.886 686.581C166.958 690.69 139.328 695.975 111.536 700.857C95.4851 703.677 78.9154 705.421 63.1815 709.648C60.697 703.656 57.576 697.925 55.137 691.949C92.9314 664.983 129.371 635.778 165.854 607.074C160.582 589.233 157.798 570.599 155.975 552.128C110.899 542.146 65.2388 533.77 20.5355 522.289C20.879 515.435 20.7306 508.558 20.6354 501.698C30.446 499.923 40.1664 497.414 49.9146 495.299C85.204 487.644 120.395 478.9 155.871 472.19C157.853 453.108 162.242 434.468 166.968 415.92C160.446 411.407 154.165 406.441 147.776 401.731L85.2879 354.839C75.3276 347.347 65.531 339.611 55.3242 332.456C58.1613 326.666 60.8282 320.893 62.9806 314.807C77.1969 319.264 96.4271 321.252 111.482 323.765C139.478 328.414 167.42 333.382 195.303 338.668C205.093 319.982 216.764 302.345 230.136 286.029C224.035 274.557 216.694 263.683 209.814 252.667C193.909 227.2 177.424 202.067 162.136 176.224C167.008 171.502 172.067 167.008 176.858 162.196C188.805 170.248 201.409 177.434 213.62 185.088C237.661 200.256 261.822 215.232 286.101 230.016C299.638 216.824 320.981 202.507 337.515 193.169C335.047 181.312 333.586 169.225 331.533 157.29L315.735 64.3604C321.287 61.4761 327.265 59.0852 332.962 56.4758C338.992 64.026 344.49 72.0355 350.332 79.7361L389.901 132.163C398.628 143.886 406.94 155.726 416.439 166.855C433.923 160.418 453.013 157.073 471.377 154.309C478.485 129.062 483.489 103.027 489.197 77.4305C493.405 58.5605 498.596 39.5735 501.744 20.4999Z" data-index="1"></path>
	<path fill="#FEFEFE" transform="scale(0.249642 0.249642)" d="M501.637 212.83C666.544 206.95 805.014 335.823 810.974 500.727C816.935 665.63 688.129 804.164 523.228 810.204C358.214 816.249 219.564 687.335 213.6 522.318C207.636 357.301 336.617 218.714 501.637 212.83Z" data-index="2"></path>
	<path fill="#534B46" transform="scale(0.249642 0.249642)" d="M498.319 244.711C508.972 243.637 520.598 244.146 531.291 244.842C579.129 247.957 627.814 265.178 666.442 293.768C683.418 306.332 698.136 320.735 712.028 336.583C717.541 342.871 723.124 349.171 728.072 355.92C764.257 405.246 781.939 465.728 778.023 526.777C773.523 586.771 749.576 643.659 709.817 688.81C701.353 698.327 691.817 706.874 682.231 715.237C628.042 762.507 557.742 782.825 486.645 777.905C468.158 776.626 448.525 772.368 431.099 766.038C425.207 763.898 419.454 761.077 413.775 758.43C382.307 743.836 353.28 724.472 327.719 701.023C323.69 697.307 318.88 693.475 315.451 689.193C314.543 688.058 314.223 687.479 314.382 686.046C315.245 684.979 315.635 684.304 317.024 683.955C318.495 684.428 319.075 685.619 319.918 686.827L320.339 687.439L321.077 687.533L321.095 687.06C327.111 682.478 332.602 676.138 338.078 670.847C350.347 659.089 362.512 647.225 374.574 635.254L499.955 508.39C491.644 500.471 481.766 493.428 472.833 486.194C447.332 465.541 421.157 445.93 396.112 424.694C372.042 447.346 348.86 471.024 324.895 493.801L281.299 535.054C273.687 542.341 265.913 549.513 258.709 557.207C260.948 568.031 263.796 578.72 267.239 589.224C301.589 557.788 335.189 525.423 369.164 493.572L396.052 468.359C401.492 463.222 406.798 457.646 412.684 453.024C418.316 456.473 423.485 460.802 428.732 464.811C438.437 472.17 448.017 479.693 457.467 487.377C464.853 493.563 477.923 502.26 483.789 508.61C480.006 513.282 474.749 517.418 470.346 521.576L435.564 553.9C405.624 582.115 376.008 610.672 346.722 639.567C341.023 645.131 335.151 650.533 329.564 656.21C323.197 662.681 317.055 669.512 310.486 675.765C309.719 676.495 308.976 677.149 307.912 677.391C307.076 677.582 306.269 676.84 305.661 676.318C299.922 671.391 290.538 656.342 286.437 649.484C261.795 608.279 248.464 566.631 246.799 518.533C244.795 461.44 261.92 405.313 295.457 359.065C299.607 353.424 303.675 347.372 308.449 342.254C315.631 347.691 321.933 354.607 328.979 360.327L399.459 416.756C504.902 499.872 608.704 585.047 710.807 672.233C713.292 669.146 715.501 665.933 717.697 662.635C702.581 648.958 685.991 636.71 670.537 623.412C617.705 578.028 564.099 533.554 509.742 490.009L424.894 422.569C415.148 414.748 405.652 406.622 395.917 398.792L338.93 353.333C331.151 347.141 323.187 341.182 315.544 334.821C316.216 333.912 316.946 333.071 317.69 332.222C363.905 280.242 428.884 248.761 498.319 244.711Z" data-index="3"></path>
	<path fill="#FEFEFE" transform="scale(0.249642 0.249642)" d="M499.021 253.71C508.823 252.758 519.114 253.424 528.915 254.122C573.26 257.278 614.885 270.913 651.916 295.719C708.601 333.689 750.705 393.501 763.946 460.743C775.664 520.244 765.739 578.683 736.91 631.818C732.63 639.707 728.347 647.574 723.337 655.029C716.329 649.807 709.671 644.019 702.865 638.531C695.225 632.372 687.319 626.441 680.235 619.636C683.125 615.866 687.274 612.937 689.57 608.768C689.614 603.807 676.209 592.916 672.724 588.459C672.594 588.293 672.468 588.123 672.34 587.955C680.856 578.899 688.572 569.419 695.131 558.838C702.684 561.745 711.8 567.003 719.103 569.17C720.417 569.56 720.862 569.658 722.034 568.903C725.69 566.549 732.715 552.103 733.571 547.823C732.154 543.227 713.249 534.538 708.118 531.387C711.083 521.753 713.685 512.34 715.562 502.433C721.25 502.284 739.759 503.477 743.901 501.63C744.58 500.136 744.944 498.714 745.209 497.093C745.765 493.702 747.417 478.885 745.76 476.99C743.489 474.393 722.33 472.906 717.559 472.411C716.519 462.298 715.015 452.373 713.224 442.364C719.786 439.5 733.785 435.82 738.885 432.474C739.785 431.883 739.922 431.559 740.085 430.496C740.72 426.354 734.997 409.79 732.22 406.199C722.656 408.531 713.061 410.735 703.438 412.81C699.343 403.449 693.809 395.06 688.228 386.549C694.829 379.882 702.235 373.412 708.172 366.168C705.025 362.319 695.121 350.684 690.385 350.31C685.567 349.928 672.015 361.082 667.603 364.21C660.341 357.623 652.032 351.994 643.804 346.699C646.034 340.049 651.647 325.881 651.616 319.466C651.286 318.802 650.948 318.254 650.387 317.756C648.019 315.658 631.256 308.596 628.439 308.75C625.111 310.063 617.149 329.546 614.898 333.954C605.14 331.765 595.748 329.274 585.769 328.116C585.526 322.915 586.847 304.004 584.185 300.813C581.536 299.658 579.019 299.346 576.165 299.178C572.923 298.988 559.915 298.076 557.649 300.6C555.536 302.956 556.242 323.61 556.183 327.751C546.167 328.3 537.049 330.385 527.418 332.996C523.475 326.402 519.033 315.241 514.342 309.82C513.433 308.77 513.089 308.569 511.677 308.57C507.83 308.571 492.233 316.677 489.366 319.484C492.668 328.08 496.528 336.837 498.943 345.728C490.558 351.036 482.379 356.407 474.502 362.451C470.379 358.906 466.083 355.561 461.956 352.016C458.487 349.035 454.992 345.395 451.062 343.055C449.625 343.035 448.458 343.692 447.274 344.447C443.11 347.101 432.505 357.149 431.524 361.794C432.632 366.584 447.685 379.96 452.07 384.08C443.715 393.717 436.641 403.937 429.875 414.735C403.818 394.089 378.28 372.73 352.154 352.185C344.314 346.019 336.205 340.179 328.287 334.11C375.907 285.213 431.054 259.365 499.021 253.71Z" data-index="4"></path>
	<path fill="#FEFEFE" transform="scale(0.249642 0.249642)" d="M569.775 390.71C581.153 389.676 593.95 392.506 604.514 396.595C622.066 403.388 637.822 419.204 645.338 436.372C654.09 456.7 654.381 479.679 646.146 500.222C636.628 524.28 619.91 538.519 596.631 548.511L583.521 538.136C572.602 528.813 560.959 520.52 549.859 511.447C529.685 494.958 509.733 477.785 488.736 462.365C490.253 447.481 497.841 433.426 507.401 422.188C523.331 403.459 545.368 392.627 569.775 390.71Z" data-index="5"></path>
	<path fill="#534B46" transform="scale(0.249642 0.249642)" d="M587.54 409.672C589.778 409.45 592.154 409.448 594.4 409.552C604.673 410.026 615.414 414.423 622.37 422.119C628.373 428.762 631.226 437.455 630.73 446.361C630.311 453.899 627.575 461.039 621.723 466.053C614.972 471.837 607.56 473.147 598.936 472.373C602.798 479.348 604.45 487.467 602.679 495.327C601.19 501.935 596.945 507.112 591.312 510.695C584.426 515.075 576.568 516.694 568.522 514.867C561.234 513.213 554.557 508.425 550.774 501.975C547.038 495.606 545.847 487.028 547.843 479.901C549.867 472.674 554.91 466.972 561.357 463.345C569.589 458.715 577.087 459.785 585.753 462.268C585.128 460.867 584.452 459.44 583.961 457.985C582.283 453.019 582.426 447.208 584.869 442.518C586.845 438.667 590.283 435.77 594.412 434.474C598.047 433.36 602.04 433.617 605.382 435.491C609.188 437.625 610.963 440.862 612.159 444.899C612.132 446.012 612.117 447.152 611.951 448.253C611.536 451.005 609.295 454.244 606.934 455.688C605.166 456.77 603.142 457.005 601.146 456.497C599.109 455.978 595.845 454.737 594.868 452.674C594.12 451.095 594.079 449.674 594.636 448.046C595.108 446.668 595.705 445.968 597.019 445.39L598.322 445.898C599.534 447.502 599.265 448.822 599.311 450.788C600.156 451.674 600.588 452.248 601.922 452.317C603.344 452.391 604.833 451.479 605.78 450.474C607.065 449.109 607.793 447.405 607.59 445.513C607.349 443.272 605.689 441.724 603.966 440.479C601.808 438.919 599.326 438.022 596.652 438.558C593.634 439.163 591.082 441.378 589.479 443.927C587.532 447.023 587.114 450.598 587.963 454.127C589.045 458.623 591.839 462.686 595.907 464.946C600.445 467.467 606.234 467.91 611.16 466.345C616.375 464.687 620.538 460.958 622.998 456.097C626.13 449.911 626.268 442.603 624.154 436.073C621.641 428.313 616.152 422.555 608.929 418.966C599.535 414.312 588.669 413.612 578.755 417.022C569.56 420.251 560.66 428.064 556.69 437.025C554.866 441.143 553.764 445.656 551.717 449.662C550.984 451.095 550.325 451.877 548.806 452.4C547.77 451.791 547.497 451.612 547.155 450.357C545.682 444.954 553.307 432.091 556.577 427.828C564.406 417.621 574.812 411.357 587.54 409.672Z" data-index="6"></path>
	<path fill="#FEFEFE" transform="scale(0.249642 0.249642)" d="M569.099 465.769C581.262 462.439 593.823 469.589 597.169 481.747C600.514 493.906 593.379 506.476 581.225 509.837C569.05 513.203 556.452 506.053 553.101 493.873C549.749 481.694 556.915 469.105 569.099 465.769Z" data-index="7"></path>
	<path fill="#534B46" transform="scale(0.249642 0.249642)" d="M573.665 479.309C579.346 478.373 584.742 482.124 585.843 487.775C586.944 493.426 583.351 498.928 577.734 500.193C573.952 501.044 570.007 499.772 567.435 496.873C564.863 493.973 564.071 489.905 565.366 486.252C566.662 482.599 569.841 479.939 573.665 479.309Z" data-index="8"></path>
	<path fill="#FEFEFE" transform="scale(0.249642 0.249642)" d="M572.843 484.781C574.739 483.85 576.995 484.043 578.704 485.284C580.414 486.525 581.298 488.609 581 490.7C580.703 492.792 579.274 494.547 577.286 495.263C574.439 496.287 571.288 494.909 570.107 492.123C568.926 489.337 570.127 486.114 572.843 484.781Z" data-index="9"></path>
	<path fill="#FEFEFE" transform="scale(0.249642 0.249642)" d="M507.42 513.956C519.955 523.655 531.72 534.365 544.237 544.115C542.103 570.677 538.385 597.261 535.204 623.716L528.159 687.44C524.838 714.874 521.922 742.356 519.413 769.876C511.844 769.723 504.238 769.703 496.688 769.125C504.125 695.647 512.218 622.237 520.966 548.903C516.972 545.453 513.172 541.684 509.312 538.078C504.609 541.587 500.24 545.874 495.847 549.78C494.606 564.637 492.826 579.459 491.329 594.293C488.244 626.432 484.829 658.538 481.085 690.606C478.233 715.516 476.159 742.019 472.21 766.657C464.845 764.855 456.933 764.205 449.798 761.602C450.961 753.441 451.566 745.149 452.472 736.952L457.298 694.536C458.607 685.994 459.29 677.238 460.38 668.651C462.983 648.552 465.407 628.43 467.651 608.287L453.125 595.139C443.674 605.37 433.118 614.536 423.104 624.204C400.058 646.456 376.792 668.539 354.079 691.128C365.406 700.045 377.296 708.349 388.712 717.18C402.252 727.656 415.333 738.676 429.163 748.783C428.661 750.698 428.415 752.714 428.086 754.667C388.327 737.713 360.706 718.83 328.119 690.447C336.126 684.443 343.231 676.757 350.4 669.774L386.227 634.758L454.721 566.482C472.322 548.99 490.282 531.919 507.42 513.956Z" data-index="10"></path>
	<path fill="#FEFEFE" transform="scale(0.249642 0.249642)" d="M562.312 352.707C567.795 351.993 573.856 352.516 579.34 353.114C612.986 356.78 643.8 372.464 665.02 399.086C685.756 425.39 695.17 458.867 691.184 492.124C686.879 528.922 666.395 560.377 637.658 582.931C625.09 573.86 613.764 562.948 601.867 553.012C605.778 551.194 609.552 549.246 613.238 547.003C635.468 533.471 648.985 513.715 655.077 488.612C658.951 469.012 657.604 448.77 648.586 430.688C639.145 411.761 620.059 395.425 599.94 388.931C577.462 381.854 553.101 383.919 532.135 394.68C505.911 408.116 491.77 429.856 483.024 457.175C473.464 448.633 462.645 441.15 452.443 433.391C457.583 421.927 463.834 411.424 471.879 401.739C495.549 373.242 524.981 356.143 562.312 352.707Z" data-index="11"></path>
	<path fill="#C9AF7D" transform="scale(0.249642 0.249642)" d="M566.254 303.715C571.164 303.385 576.157 303.537 581.059 303.896C581.686 313.367 581.521 322.926 581.586 332.416C594.186 333.106 605.677 336.03 617.651 339.81C621.844 331.183 625.478 322.288 629.678 313.654C635.491 316.348 641.453 318.731 647.366 321.195C644.519 330.091 641.594 338.962 638.591 347.807C648.204 355.013 658.216 361.45 667.112 369.58C674.666 364.565 681.609 358.293 689.583 353.946C694.142 357.961 698.029 362.417 701.685 367.257C695.365 373.492 688.907 379.598 682.515 385.76C690.033 395.873 696.148 406.834 701.817 418.059C711.335 415.816 720.784 413.513 730.432 411.883C732.366 417.625 734.082 423.459 735.88 429.246C726.774 432.329 717.17 435.032 708.407 438.982C710.848 451.353 712.582 463.713 713.081 476.318C722.525 477.749 732.051 478.627 741.549 479.616C741.575 485.548 741.118 491.526 740.831 497.453C731.195 497.784 721.553 497.933 711.911 497.9C709.987 510.34 706.558 522.218 702.081 533.965C710.459 539.219 719.851 543.568 728.586 548.268C726.152 553.777 723.656 559.35 720.391 564.422C711.19 560.618 702.312 556.252 693.322 551.992C685.919 565.512 676.408 576.913 666.114 588.272C672.222 595.002 678.701 601.38 685.121 607.808C682.613 611.026 679.771 614.002 677.033 617.025C665.083 606.683 652.643 596.508 641.255 585.561C651.401 577.162 660.783 568.176 668.891 557.76C673.515 551.87 677.542 545.127 681.017 538.498C697.205 507.337 700.38 471.03 689.846 437.533C679.606 404.97 656.727 377.879 626.338 362.334C598.666 348.07 562.719 344.297 532.951 354.009C505.751 362.884 480.356 382.552 463.487 405.573C457.69 413.485 453.043 421.968 448.59 430.679C443.322 426.474 438.115 422.194 432.969 417.84C437.41 410.92 441.581 403.852 446.549 397.286C450.207 392.452 454.387 388.106 458.226 383.429C450.443 376.896 443.666 369.079 436.151 362.211C440.008 357.058 445.273 352.361 449.748 347.698C457.824 354.416 465.945 360.978 473.857 367.898C478.807 364.827 483.331 361.044 488.094 357.691C493.458 353.915 499.085 350.613 504.743 347.305C501.18 338.594 497.914 329.708 494.682 320.869C500.041 317.938 505.611 315.414 511.347 313.316C515.772 321.809 520.327 330.234 525.01 338.588C536.624 334.768 548.238 332.066 560.488 331.441C560.488 322.867 559.51 312.805 561.02 304.369C562.63 303.716 564.525 303.816 566.254 303.715Z" data-index="12"></path>
	<path fill="#C9AF7D" transform="scale(0.249642 0.249642)" d="M452.587 601.767C456.247 602.663 460.618 607.882 463.024 610.724L445.453 760.451C441.084 759.22 436.706 757.906 432.587 755.986C432.483 752.716 432.517 749.687 433.095 746.456C424.29 739.687 415.757 732.629 407.193 725.56C391.975 713.534 376.321 702.137 360.905 690.377C391.117 660.473 422.599 631.878 452.587 601.767Z" data-index="13"></path>
	<path fill="#534B46" transform="scale(0.249642 0.249642)" d="M443.376 629.983C445.391 633.99 434.755 719.67 433.551 731.135C423.47 724.676 413.817 716.675 404.533 709.123C396.486 702.711 388.116 696.471 380.541 689.503L417.48 654.393C425.875 646.281 434.224 637.199 443.376 629.983Z" data-index="14"></path>
	<path fill="#FEFEFE" transform="scale(0.249642 0.249642)" d="M438.5 639.948C439.948 642.951 431.16 714.082 430.222 723.249C422.148 717.176 414.336 710.734 406.459 704.408C399.9 699.451 393.26 694.628 386.98 689.315C394.93 682.21 402.383 674.495 410.051 667.084L438.5 639.948Z" data-index="15"></path>
	<path fill="#FEFEFE" transform="scale(0.249642 0.249642)" d="M567.688 563.271C571.856 566.183 575.674 569.646 579.625 572.846C590.208 581.419 600.533 590.285 611.001 598.995C622.884 608.881 635.001 618.483 646.836 628.429C659.682 639.224 672.2 650.326 684.892 661.293C689.07 664.903 702.025 674.811 704.328 678.752C703.876 679.738 703.635 680.205 702.715 680.801C701.484 680.753 700.669 680.304 699.677 679.619C697.335 678.001 695.246 675.859 693.015 674.067C687.622 669.749 682.201 665.467 676.752 661.22L601.922 601.558L597.612 603.474C593.991 605.414 589.943 606.612 586.07 607.962C583.955 623.056 582.82 638.426 581.132 653.593C578.432 677.687 575.563 701.761 572.524 725.815C571.009 738.566 569.962 751.53 567.845 764.185C560.071 765.922 552.232 767.061 544.333 768.046C552.418 699.842 558.468 631.332 567.688 563.271Z" data-index="16"></path>
	<path fill="#FEFEFE" transform="scale(0.249642 0.249642)" d="M301.859 365.33C307.547 369.567 312.977 374.218 318.585 378.573C336.763 392.559 354.767 406.768 372.595 421.198C365.625 426.098 359.49 432.848 353.314 438.7C340.986 450.384 328.823 462.106 316.751 474.058C303.038 487.635 288.544 500.476 274.652 513.889L255.567 532.145C254.365 521.544 254.547 510.815 254.534 500.161C259.695 496.82 264.189 492.003 268.667 487.793C277.217 479.71 285.697 471.554 294.107 463.326C303.544 454.207 314.268 445.294 322.798 435.383C323.106 427.427 323.386 419.142 322.935 411.2C319.787 408.031 315.696 405.499 312.116 402.812C304.679 397.178 297.186 391.619 289.638 386.134C293.369 379.051 297.731 372.191 301.859 365.33Z" data-index="17"></path>
	<path fill="#FEFEFE" transform="scale(0.249642 0.249642)" d="M415.494 477.834C418.616 478.783 456.147 508.616 461.936 512.928C457.086 517.467 451.943 521.726 446.826 525.959C435.845 521.601 428.463 510.069 417.496 505.82C402.649 521.419 385.919 535.698 370.158 550.39C351.518 567.995 332.99 585.718 314.576 603.559C304.725 612.441 294.999 621.459 285.399 630.611C281.527 624.406 278.296 617.225 275.434 610.495C280.322 606.594 284.785 601.996 289.317 597.685L313.3 574.792L380.094 511.449C391.882 500.244 403.457 488.77 415.494 477.834Z" data-index="18"></path>
	<path fill="#C9AF7D" transform="scale(0.249642 0.249642)" d="M548.178 547.195C552.458 549.18 559.382 556.422 563.123 559.72C562.299 573.414 560.136 587.114 558.622 600.757L548.397 691.254L542.207 747.942C541.502 754.18 541.774 762.368 539.621 768.166L538.382 768.589C533.639 769.336 528.684 769.525 523.894 769.955C524.156 762.125 525.346 754.127 526.117 746.322C527.774 728.809 529.66 711.318 531.774 693.855L548.178 547.195Z" data-index="19"></path>
	<path fill="#FEFEFE" transform="scale(0.249642 0.249642)" d="M608.24 625.656C614.243 628.528 631.153 643.16 637.53 648.166L693.779 691.577C691.079 694.812 687.972 697.61 684.801 700.368C678.706 694.441 670.826 689.412 664.041 684.23C655.96 678.058 648.226 671.44 640.448 664.894C636.396 666.487 632.546 668.681 628.687 670.69C626.198 671.869 623.94 673.259 621.621 674.736C618.509 698.869 616.55 723.375 614.38 747.619C608.004 751.378 601.014 753.799 593.979 755.997L602.235 680.936C604.205 662.505 605.746 644.028 608.24 625.656Z" data-index="20"></path>
	<path fill="#C9AF7D" transform="scale(0.249642 0.249642)" d="M509.062 544.396C511.683 545.66 513.985 548.156 516.073 550.141C513.547 580.204 509.593 610.179 506.267 640.162L492.357 768.849C489.707 768.635 487.032 768.587 484.375 768.476L476.878 767.785C478.007 751.693 480.342 735.593 482.244 719.576L489.117 658.496C493.127 623.074 495.783 587.478 500.094 552.089C502.99 549.418 505.981 546.851 509.062 544.396Z" data-index="21"></path>
	<path fill="#C9AF7D" transform="scale(0.249642 0.249642)" d="M413.019 458.333C416.657 459.85 420.675 463.802 423.895 466.278C439.941 478.651 455.616 491.497 470.9 504.8L465.445 510.339C458.986 504.201 451.09 498.966 443.967 493.578C434.082 486.101 424.309 478.268 414.135 471.199C409.124 480.038 386.106 500.127 377.37 508.413C358.442 526.062 339.706 543.916 321.166 561.972C305.128 576.416 289.231 591.369 274.013 606.674C271.933 602.39 270.323 597.921 268.765 593.428C274.44 587.503 280.978 582.23 286.935 576.567L344.285 522.774L387.804 481.499C396.056 473.7 404.209 465.501 413.019 458.333Z" data-index="22"></path>
	<path fill="#C9AF7D" transform="scale(0.249642 0.249642)" d="M601.122 606.489C605.508 608.877 610.1 613.422 614.112 616.504C627.836 626.943 641.396 637.594 654.789 648.455C664.231 655.959 673.883 663.206 683.357 670.673C688.964 675.093 694.755 679.414 699.782 684.499L696.244 687.939C682.556 677.243 668.556 666.935 654.989 656.087C644.308 647.452 633.458 639.029 622.445 630.822C616.936 626.678 611.377 621.922 605.249 618.742C604.84 620.685 604.541 622.661 604.198 624.617C598.84 669.042 593.877 713.513 589.308 758.026C583.981 759.772 578.666 761.326 573.234 762.711C576.856 712.139 585.533 661.856 590.671 611.424C594.187 609.848 597.672 608.203 601.122 606.489Z" data-index="23"></path>
	<path fill="#C9AF7D" transform="scale(0.249642 0.249642)" d="M309.224 355.794C315.458 358.322 337.754 377.622 344.496 383.051C360.672 396.077 377.217 408.644 393.003 422.149C383.356 432.527 372.567 441.97 362.438 451.879C329.709 483.894 295.91 514.839 263.27 546.929L257.778 552.636L255.934 537.887C261.898 531.277 268.772 525.414 275.223 519.282L303.724 491.887L377.535 421.301C374.155 417.315 369.74 413.935 365.769 410.56C357.388 403.437 348.814 396.658 340.13 389.914C328.229 380.582 316.418 371.136 304.7 361.576L309.224 355.794Z" data-index="24"></path>
	<path fill="#C9AF7D" transform="scale(0.249642 0.249642)" d="M418.559 511.322C424.776 513.784 437.232 525.299 443.669 529.686C440.802 532.49 437.665 535.082 434.664 537.744C429.422 534.425 424.266 530.863 418.723 528.066C413.277 531.841 408.267 536.966 403.464 541.522L381.208 562.893C357.262 585.909 333.17 608.772 308.932 631.481C304.079 636.116 299.19 640.714 294.266 645.274C291.9 641.511 289.632 637.687 287.465 633.806C293.742 629.486 299.252 623.832 304.756 618.591L324.397 599.963L391.875 536.012C400.745 527.762 409.337 519.184 418.559 511.322Z" data-index="25"></path>
	<path fill="#FEFEFE" transform="scale(0.249642 0.249642)" d="M418.865 532.863C422.79 535.312 426.631 537.918 430.504 540.45C399.499 569.846 368.838 599.601 338.526 629.71C328.007 640.178 317.287 650.342 307.14 661.189L306.21 661.899C303.145 661.151 298.214 652.099 296.521 649.463C304.16 640.928 313.09 633.418 321.505 625.658C331.492 616.386 341.372 606.999 351.143 597.499L393.671 556.446C401.906 548.516 410.092 540.196 418.865 532.863Z" data-index="26"></path>
	<path fill="#C9AF7D" transform="scale(0.249642 0.249642)" d="M287.099 389.233C292.095 392.875 296.865 396.921 301.756 400.713C307.535 405.193 313.547 409.505 318.993 414.386C319.195 420.912 318.604 427.563 318.466 434.103C310.652 442.557 301.773 450.005 293.397 457.886C281.902 468.703 270.731 479.886 259.333 490.81L254.708 495.282C254.972 489.277 255.757 483.356 256.546 477.404C262.796 472.158 268.482 465.92 274.329 460.202C283.983 450.797 293.696 441.452 303.467 432.17C304.04 428.236 304.494 424.279 304.996 420.335C299.18 412.967 288.645 406.32 281.29 400.077C283.112 396.406 285.135 392.829 287.099 389.233Z" data-index="27"></path>
	<path fill="#C9AF7D" transform="scale(0.249642 0.249642)" d="M639.378 669.933C641.273 670.36 676.574 698.973 681.836 702.972C678.714 705.846 675.522 708.644 672.265 711.365C660.901 701.577 649.166 691.818 637.409 682.505C637.137 686.048 636.801 689.585 636.402 693.116C636.213 698.689 635.229 704.454 634.614 710.01C633.542 719.682 632.58 729.357 631.248 738.999C627.298 741.485 623.121 743.615 618.928 745.655C620.967 722.753 623.29 699.876 625.895 677.031C630.442 674.766 634.937 672.399 639.378 669.933Z" data-index="28"></path>
	<path fill="#FEFEFE" transform="scale(0.249642 0.249642)" d="M279.224 404.147C285.936 407.545 295.074 416.376 300.789 421.638C300.237 424.498 300.015 427.191 299.93 430.099C290.543 440.172 279.426 449.038 269.445 458.584C265.639 462.238 261.932 465.994 258.328 469.847C262.087 446.732 269.165 425.292 279.224 404.147Z" data-index="29"></path>
	<path fill="#FEFEFE" transform="scale(0.249642 0.249642)" d="M641.043 691.639C647.088 694.953 663.125 708.927 668.473 714.217C663.733 718.093 658.593 721.513 653.59 725.039C647.853 728.916 641.951 732.546 635.901 735.917C638.217 721.278 639.014 706.334 641.043 691.639Z" data-index="30"></path>
	<path fill="#FEFEFE" transform="scale(0.249642 0.249642)" d="M666.862 778.964C668.268 779.938 668.686 784.989 669.047 786.794C672.356 803.341 674.562 819.96 677.517 836.553L699.084 955.692L695.359 957.876C685.041 947.248 672.55 928.659 663.685 916.218C647.822 894.246 631.451 872.635 615.868 850.466C606.854 837.643 598.525 824.33 589.618 811.425C601.529 807.578 613.559 803.926 625.155 799.192C639.464 793.35 653.153 786.069 666.862 778.964Z" data-index="31"></path>
	<path fill="#629995" transform="scale(0.249642 0.249642)" d="M661.848 799.026C662.718 800.063 665.806 821.05 666.498 824.608C671.287 849.218 674.93 873.991 679.461 898.637C681.413 909.256 683.82 919.818 686.075 930.376C678.371 920.546 671.619 909.507 664.534 899.192L609.261 820.124C627.039 813.923 644.465 806.267 661.848 799.026Z" data-index="32"></path>
	<path fill="#FEFEFE" transform="scale(0.249642 0.249642)" d="M357.175 780.798C381.802 792.499 406.274 803.665 432.916 809.967C421.617 831.353 407.568 851.132 393.53 870.785C382.954 885.835 372.137 900.715 361.084 915.419C355.184 922.93 349.407 930.536 343.754 938.235C339.182 944.501 334.685 951.609 329.13 957.055C328.377 956.719 327.89 956.652 327.401 955.941C326.333 954.386 326.463 952.497 326.636 950.702C327.108 945.824 328.487 940.756 329.308 935.893C331.583 922.35 333.963 908.825 336.45 895.32L357.175 780.798Z" data-index="33"></path>
	<path fill="#629995" transform="scale(0.249642 0.249642)" d="M363.456 799.781C368.341 802.411 373.922 804.283 379.101 806.281C391.384 811.022 403.944 815.269 416.089 820.328C401.429 846.26 381.337 873.029 363.603 897.043C355.909 907.457 348.481 918.671 339.79 928.255C340.969 914.776 344.777 901.326 347.281 888.031C349.728 875.043 351.71 861.967 354.14 848.974C357.208 832.572 360.705 816.24 363.456 799.781Z" data-index="34"></path>
	<path fill="#FEFEFE" transform="scale(0.249642 0.249642)" d="M211.811 588.927C213.671 591.324 218.013 609.392 219.702 614.125C226.255 632.485 234.648 649.941 243.529 667.253C225.46 669.69 207.26 673.856 189.303 677.174C158.041 682.944 126.733 688.459 95.3812 693.717C90.12 694.455 72.0169 698.964 68.4111 697.491C67.267 697.023 67.0823 696.941 66.6931 695.799C71.2214 690.989 77.5079 687.238 82.8409 683.361L108.101 664.737C142.482 639.244 176.526 613.178 211.811 588.927Z" data-index="35"></path>
	<path fill="#629995" transform="scale(0.249642 0.249642)" d="M203.003 607.392C204.268 608.283 205.777 614.147 206.443 615.858C212.349 631.327 218.748 646.602 225.631 661.661C189.242 667.816 152.901 674.251 116.611 680.964C109.733 682.131 102.844 683.237 95.9455 684.282C119.946 667.321 143.284 649.544 167.106 632.336C178.888 623.824 190.704 615.149 203.003 607.392Z" data-index="36"></path>
	<path fill="#FEFEFE" transform="scale(0.249642 0.249642)" d="M69.0689 325.489C75.1534 327.507 82.2262 328.252 88.5535 329.303L119.452 334.471C161.274 341.957 203.151 349.132 245.079 355.994C235.881 374.02 227.049 391.461 220.022 410.476C217.436 418.059 214.989 425.688 212.681 433.36C201.584 424.379 188.959 417.028 177.218 408.876C148.584 388.992 119.565 369.225 91.9139 348C84.14 342.033 74.9308 336.581 67.9381 329.775C67.7322 328.178 68.489 326.975 69.0689 325.489Z" data-index="37"></path>
	<path fill="#629995" transform="scale(0.249642 0.249642)" d="M95.13 339.484C100.1 339.514 105.718 340.994 110.63 341.879L137.82 346.793C167.876 352.237 197.986 357.376 228.145 362.21C221.642 374.266 215.891 386.362 210.327 398.865C207.927 404.529 205.678 410.256 203.584 416.04C167.176 390.957 130.475 366.043 95.13 339.484Z" data-index="38"></path>
	<path fill="#FEFEFE" transform="scale(0.249642 0.249642)" d="M952.651 325.686C953.353 325.535 953.978 325.601 954.691 325.631C955.782 326.463 956.11 326.911 956.557 328.208C956.199 329.965 955.355 330.669 954.042 331.848C946.446 338.663 937 344.077 928.866 350.318C891.077 379.313 851.408 405.884 812.945 433.967C810.864 427.004 808.734 420.056 806.557 413.123C799.765 393.38 791.156 374.984 781.989 356.283C803.32 351.295 825.145 348.201 846.689 344.321C881.938 337.71 917.261 331.498 952.651 325.686Z" data-index="39"></path>
	<path fill="#629995" transform="scale(0.249642 0.249642)" d="M930.311 337.733C929.698 341.448 890.88 366.254 884.624 370.664C872.92 378.914 861.519 387.603 849.701 395.69C839.473 402.689 828.703 408.971 818.873 416.526C818.057 411.193 816.012 405.944 814.198 400.878C808.888 387.59 803.504 374.63 797.19 361.777C811.604 358.805 826.225 356.728 840.714 354.139L930.311 337.733Z" data-index="40"></path>
	<path fill="#FEFEFE" transform="scale(0.249642 0.249642)" d="M330.133 68.001C334.464 70.7053 395.369 154.797 402.282 164.935C412.594 180.057 422.811 195.691 431.872 211.598C422.9 214.054 414.057 216.959 405.376 220.301C388.405 227.251 371.894 235.274 355.943 244.321C353.999 231.19 351.467 218.113 349.3 205.014L332.4 103.959C331.624 99.3715 326.26 72.6272 326.594 69.9743C327.66 68.5383 328.462 68.5427 330.133 68.001Z" data-index="41"></path>
	<path fill="#629995" transform="scale(0.249642 0.249642)" d="M339.451 96.8624C346.389 104.003 355.36 118.113 361.608 126.819C379.513 151.77 397.363 176.584 413.734 202.604C408.32 204.444 403.111 206.417 397.875 208.71C385.251 213.896 372.341 219.675 360.176 225.875C354.368 182.749 346.261 139.841 339.451 96.8624Z" data-index="42"></path>
	<path fill="#FEFEFE" transform="scale(0.249642 0.249642)" d="M812.523 589.431C820.592 594.657 828.216 600.751 836.013 606.383L880.45 638.126C901.553 653.133 922.94 667.928 943.393 683.82C946.566 686.286 950.195 688.3 953.253 690.86C954.308 691.743 955.627 692.921 956.066 694.276C956.382 695.252 956.283 695.684 955.748 696.48C948.421 697.107 937.022 694.306 929.449 693.127C880.002 683.71 829.99 676.668 780.358 668.251C794.408 640.987 803.905 618.95 812.523 589.431Z" data-index="43"></path>
	<path fill="#629995" transform="scale(0.249642 0.249642)" d="M821.382 605.84C828.588 610.678 835.354 616.408 842.324 621.598C852.969 629.526 863.912 637.19 874.747 644.86L912.533 671.323C918.31 675.429 925.026 679.485 930.01 684.494C923.318 683.615 916.706 682.192 910.088 680.884C886.824 676.761 863.527 672.828 840.199 669.086C826.15 666.847 811.963 664.972 798.022 662.137C807.401 644.083 814.301 624.875 821.382 605.84Z" data-index="44"></path>
	<path fill="#FEFEFE" transform="scale(0.249642 0.249642)" d="M468.135 818.074C496.495 822.217 526.024 822.006 554.427 818.383C551.317 830.548 548.768 842.864 545.864 855.08C537.261 889.871 529.275 924.812 521.91 959.886C520.803 965.618 516.4 990.243 514.476 993.39C512.824 993.666 511.665 993.733 510.018 993.399C509.711 993.095 509.286 992.876 509.098 992.487C507.968 990.143 503.246 963.047 502.043 957.278C497.971 937.151 493.557 917.094 488.805 897.116C482.168 870.703 475.278 844.355 468.135 818.074Z" data-index="45"></path>
	<path fill="#629995" transform="scale(0.249642 0.249642)" d="M538.035 833.727L538.786 834.046C538.968 838.452 533.035 862.144 531.831 867.893L520.893 921.273C518.162 934.646 515.625 948.327 511.551 961.36C510.495 954.331 509.157 947.36 507.827 940.378C501.352 904.781 493.531 869.442 484.379 834.438C502.28 834.658 520.155 834.705 538.035 833.727Z" data-index="46"></path>
	<path fill="#FEFEFE" transform="scale(0.249642 0.249642)" d="M204.659 471.675L205.255 472.108C205.327 475.076 204.684 478.074 204.455 481.039C203.931 487.992 203.5 494.953 203.164 501.918C202.481 518.851 203.548 535.43 204.742 552.304C157.148 542.52 109.611 532.458 62.1343 522.118C56.785 521.141 31.999 516.791 29.7685 513.991C29.7617 512.698 29.6927 511.576 30.5552 510.494C31.3318 509.519 32.5789 508.916 33.7517 508.558C36.025 507.865 38.4729 507.706 40.7928 507.187C46.329 505.948 51.8387 504.54 57.37 503.268C79.0243 498.286 100.675 493.672 122.439 489.201C149.893 483.561 177.056 476.662 204.659 471.675Z" data-index="47"></path>
	<path fill="#629995" transform="scale(0.249642 0.249642)" d="M189.75 484.118L191.5 483.948C191.649 484.142 191.867 484.298 191.947 484.529C192.317 485.599 191.551 497.392 191.528 499.59C191.39 513.311 191.106 527.176 191.837 540.879C156.672 533.126 121.2 526.43 86.1796 518.082C77.3504 516.157 68.4344 514.655 59.6493 512.523C75.9443 508.141 92.7082 505.315 109.188 501.711C136.054 495.837 162.798 489.613 189.75 484.118Z" data-index="48"></path>
	<path fill="#FEFEFE" transform="scale(0.249642 0.249642)" d="M695.111 68.2549C696.656 68.8122 698.188 69.6947 699.675 70.4076C693.806 87.4987 691.672 106.418 688.496 124.192C683.554 151.848 678.361 179.588 674.691 207.443C673.05 219.904 672.035 232.514 670.88 245.032C654.253 235.623 637.906 227.216 620.139 220.167C610.547 216.483 600.837 213.112 591.026 210.058C597.757 201.353 603.635 192 610.065 183.074L655.327 121.148C668.302 103.333 680.988 85.1898 695.111 68.2549Z" data-index="49"></path>
	<path fill="#629995" transform="scale(0.249642 0.249642)" d="M684.195 96.3797C684.581 98.1308 667.765 185.845 665.723 198.507C664.387 206.791 663.409 215.015 662.994 223.396C650.548 217.322 637.36 212.342 624.413 207.456C618.625 205.369 612.739 203.75 606.773 202.279C616.808 184.575 629.938 167.787 642.154 151.535C651.439 139.182 660.397 126.564 669.803 114.308C674.466 108.231 679.455 102.4 684.195 96.3797Z" data-index="50"></path>
	<path fill="#FEFEFE" transform="scale(0.249642 0.249642)" d="M509.174 29.1435C510.505 29.0708 512.636 28.7852 513.79 29.477C514.535 29.9239 514.982 30.6295 515.298 31.4141C516.273 33.8314 516.591 37.4195 517.104 40.0069L521.551 62.5561C524.502 76.9276 528.68 91.0466 531.914 105.359C535.094 119.427 537.684 133.628 540.826 147.704C545.188 166.376 549.718 185.008 554.416 203.598C541.886 203.156 529.458 201.556 516.883 201.394C501.926 201.227 487.021 202.258 472.11 203.271C476.873 181.945 480.997 160.436 485.493 139.048L509.174 29.1435Z" data-index="51"></path>
	<path fill="#629995" transform="scale(0.249642 0.249642)" d="M511.275 59.9195C512.341 61.032 515.799 83.2059 516.494 86.6067C521.535 111.267 527.601 135.81 533.175 160.361C535.6 171.044 537.145 181.942 539.954 192.532C530.909 191.785 521.813 191.541 512.745 191.192C503.013 191.014 493.287 191.305 483.558 191.542C491.729 147.477 503.749 104.084 511.275 59.9195Z" data-index="52"></path>
	<path fill="#FEFEFE" transform="scale(0.249642 0.249642)" d="M756.808 700.851C762.164 706.035 770.493 720.987 775.138 727.934C800.934 766.82 826.017 806.175 850.374 845.977L845.488 850.624C834.599 844.108 824.05 836.824 813.366 829.963C802.101 822.881 790.999 815.524 779.701 808.502C765.489 799.669 750.971 791.307 736.799 782.42C724.211 774.526 711.863 766.117 699.55 757.799C713.79 746.907 727.62 733.954 739.696 720.681C745.571 714.225 751.028 707.394 756.808 700.851Z" data-index="53"></path>
	<path fill="#629995" transform="scale(0.249642 0.249642)" d="M757.375 718.415C761.492 722.721 769.811 736.819 773.558 742.42C792.583 770.864 810.257 800.093 828.878 828.784C820.42 824.131 812.516 818.334 804.537 812.911C797.152 807.796 789.352 803.293 781.894 798.282C775.512 793.994 769.432 789.265 763.058 784.96C748.242 775.019 733.209 765.404 717.972 756.122C728.093 749.014 749.295 727.988 757.375 718.415Z" data-index="54"></path>
	<path fill="#FEFEFE" transform="scale(0.249642 0.249642)" d="M820.36 472.81C827.938 473.463 835.768 475.617 843.229 477.177C857.267 480.094 871.288 483.088 885.293 486.16L969.026 504.389C976.016 505.949 983.215 507.058 990.147 508.729C991.507 509.057 992.229 509.447 993.205 510.44C993.844 511.868 993.756 512.785 993.597 514.281C989.323 516.371 967.558 520.514 961.389 521.905C934.724 528.197 907.856 533.621 881.122 539.604C861.025 544.102 840.408 549.8 819.984 552.416C822.711 526.089 823.992 499.132 820.36 472.81Z" data-index="55"></path>
	<path fill="#629995" transform="scale(0.249642 0.249642)" d="M833.995 484.162L927.137 504.236C939.598 506.831 952.47 510.409 965.071 511.905C956.995 513.525 948.937 515.227 940.896 517.012C916.787 522.144 892.722 527.476 868.701 533.007C857.064 535.649 845.347 537.996 833.771 540.899L833.995 484.162Z" data-index="56"></path>
	<path fill="#FEFEFE" transform="scale(0.249642 0.249642)" d="M178.2 173.868C181.621 174.86 195.221 185.087 199.659 187.84L288.701 242.343C297.642 247.885 317.611 259.09 324.432 265.359C314.279 275.564 302.731 284.175 292.606 294.538C283.641 303.604 275.455 313.464 267.163 323.141C245.906 291.843 225.733 259.682 205.45 227.742L188.098 200.376C183.435 193.047 178.376 185.642 174.667 177.772C175.693 176.3 176.921 175.12 178.2 173.868Z" data-index="57"></path>
	<path fill="#629995" transform="scale(0.249642 0.249642)" d="M193.849 194.418C206.251 204.755 221.536 212.953 235.164 221.593L305.486 266.965C298.594 273.232 291.997 279.7 285.398 286.271C278.976 292.641 272.606 298.99 266.668 305.821C260.222 293.925 251.853 282.781 244.378 271.508L209.233 217.783C204.076 209.921 198.262 202.776 193.849 194.418Z" data-index="58"></path>
	<path fill="#FEFEFE" transform="scale(0.249642 0.249642)" d="M843.641 174.425C845.723 174.608 848.625 178.001 850.153 179.416C836.965 198.503 824.74 218.181 812.249 237.721L757.895 323.45C750.625 314.226 743.355 305.132 735.497 296.401C724.759 285.134 712.816 275.332 701.137 265.088C705.987 261.6 711.365 258.594 716.435 255.416L747.413 235.909C779.432 215.376 811.321 194.475 843.641 174.425Z" data-index="59"></path>
	<path fill="#629995" transform="scale(0.249642 0.249642)" d="M829.833 192.997L830.139 193.207C829.654 196.236 815.416 215.233 812.492 219.517C800.133 237.624 787.691 255.753 775.607 274.042C769.091 283.903 763.012 294.058 756.343 303.818C750.561 297.223 744.35 291.027 738.164 284.816C731.625 278.197 724.726 271.822 717.284 266.231C753.719 240.296 792.471 217.562 829.833 192.997Z" data-index="60"></path>
	<path fill="#FEFEFE" transform="scale(0.249642 0.249642)" d="M265.564 699.848C276.004 712.695 286.717 725.278 298.595 736.829C306.132 744.159 314.204 750.923 322.171 757.777C285.96 782.346 248.57 805.14 211.588 828.524C200.783 835.398 190.014 842.328 179.281 849.314C177.716 847.964 176.326 846.411 174.902 844.916C178.101 840.456 180.761 835.497 183.657 830.829L198.81 806.831C204.684 797.54 210.799 788.4 216.599 779.064C232.988 752.684 248.821 726.021 265.564 699.848Z" data-index="61"></path>
	<path fill="#629995" transform="scale(0.249642 0.249642)" d="M263.273 720.764C267.912 724.353 271.937 729.304 276.318 733.287C285.923 742.017 296.075 750.278 305.997 758.653C296.438 765.377 286.467 771.317 276.567 777.506C258.286 788.708 240.132 800.117 222.11 811.731C212.907 817.051 204.359 823.281 195.29 828.782C203.708 818.89 211.685 804.081 218.737 792.796C233.739 768.882 248.584 744.871 263.273 720.764Z" data-index="62"></path>
	<path fill="#FEFEFE" transform="scale(0.249642 0.249642)" d="M338.493 203.923C338.754 204.199 339.092 204.418 339.275 204.75C339.907 205.899 346.134 243.507 347.794 249.635C341.649 252.942 335.827 257.224 329.893 260.934C324.929 257.722 320.03 254.409 315.2 250.999C308.109 246.262 301.268 241.08 294.261 236.211C307.33 223.983 323.102 213 338.493 203.923Z" data-index="63"></path>
	<path fill="#FEFEFE" transform="scale(0.249642 0.249642)" d="M330.214 763.361C333.622 764.23 344.707 772.75 349.417 775.284C346.955 789.578 344.461 803.801 341.582 818.02C335.87 815.026 330.297 811.831 324.727 808.58C314.44 802.182 304.753 795.073 294.998 787.906C306.182 779.052 318.689 771.794 330.214 763.361Z" data-index="64"></path>
	<path fill="#FEFEFE" transform="scale(0.249642 0.249642)" d="M694.105 761.555C699.605 766.03 705.677 769.467 711.666 773.218C718.582 777.545 725.418 782 732.17 786.58C723.059 793.021 714.028 799.352 704.433 805.055C698.035 808.822 691.558 812.454 685.007 815.949C682.127 801.699 678.928 787.586 676.803 773.193C682.479 769.179 688.247 765.299 694.105 761.555Z" data-index="65"></path>
	<path fill="#FEFEFE" transform="scale(0.249642 0.249642)" d="M773.49 677.17C788.545 678.886 803.472 681.751 818.382 684.42C811.914 695.965 804.737 707.097 796.892 717.754C793.951 721.92 791.089 726.142 788.308 730.416C779.666 718.25 771.897 705.48 763.107 693.405C766.393 687.906 770.027 682.563 773.49 677.17Z" data-index="66"></path>
	<path fill="#FEFEFE" transform="scale(0.249642 0.249642)" d="M786.742 293.899C799.04 306.278 810.092 323.788 816.936 339.734C808.277 341.162 799.63 342.665 790.997 344.243C785.554 345.203 780.124 346.229 774.707 347.323C771.64 341.164 767.213 335.518 763.242 329.917C771.16 317.967 778.994 305.96 786.742 293.899Z" data-index="67"></path>
	<path fill="#FEFEFE" transform="scale(0.249642 0.249642)" d="M236.259 294.821C239.394 296.793 256.618 324.857 260.806 330.742C257.491 336.494 253.411 341.952 249.656 347.433C244.356 346.299 238.862 345.663 233.497 344.865C224.58 343.533 215.698 341.827 206.817 340.274C212.957 325.739 225.65 306.425 236.259 294.821Z" data-index="68"></path>
	<path fill="#FEFEFE" transform="scale(0.249642 0.249642)" d="M683.722 205.645C700.057 214.201 715.879 223.813 729.941 235.808C724.075 239.704 717.836 243.16 711.78 246.758C705.009 250.964 698.253 255.174 691.309 259.092C686.651 255.501 681.896 252.207 676.962 249.015C676.978 234.505 680.396 219.712 683.722 205.645Z" data-index="69"></path>
	<path fill="#FEFEFE" transform="scale(0.249642 0.249642)" d="M249.545 677.244C251.089 677.847 258.322 689.852 259.815 692.115C251.736 704.339 244.738 717.371 236.021 729.159C233.331 725.915 230.724 722.602 228.204 719.225C220.151 708.46 213.112 696.567 206.685 684.76C219.181 681.603 236.68 678.889 249.545 677.244Z" data-index="70"></path>
	<path fill="#FEFEFE" transform="scale(0.249642 0.249642)" d="M466.842 164.668C467.483 164.538 468.108 164.631 468.757 164.668C468.711 164.866 468.63 165.058 468.618 165.261C468.337 169.899 467.118 174.688 466.265 179.277L461.49 204.694C453.791 205.755 446.099 208.123 438.581 210.083C436.397 206.285 434.015 202.595 431.69 198.882C427.133 191.51 422.249 184.331 417.597 177.016C433.189 170.538 450.291 167.489 466.842 164.668Z" data-index="71"></path>
	<path fill="#FEFEFE" transform="scale(0.249642 0.249642)" d="M444.419 812.592C450.013 814.222 456.028 815.129 461.749 816.283C462.536 822.124 464.296 827.989 465.706 833.712C467.74 841.891 469.662 850.098 471.47 858.329C464.798 858.017 458.183 857.064 451.605 855.948C441.693 854.254 431.941 851.609 422.191 849.174C425.44 843.032 429.42 837.204 433.069 831.287C436.897 825.081 440.491 818.737 444.419 812.592Z" data-index="72"></path>
	<path fill="#FEFEFE" transform="scale(0.249642 0.249642)" d="M846.736 419.941C852.448 428.621 856.871 459.522 857.949 470.788C849.489 468.718 840.874 467.086 832.354 465.261C827.9 464.123 823.406 463.21 818.906 462.282C817.867 455.321 816.53 448.464 815.117 441.57C825.942 435.001 836.347 427.202 846.736 419.941Z" data-index="73"></path>
	<path fill="#FEFEFE" transform="scale(0.249642 0.249642)" d="M582.506 813.161L584.136 813.064C588.558 816.918 602.053 839.461 605.448 845.63C595.725 848.947 585.616 851.278 575.615 853.584C569.046 854.923 562.495 855.991 555.808 856.5C556.988 843.278 561.533 829.577 564.926 816.753C570.776 815.506 576.636 814.309 582.506 813.161Z" data-index="74"></path>
	<path fill="#FEFEFE" transform="scale(0.249642 0.249642)" d="M166.402 554.31C179.831 556.6 193.195 559.251 206.481 562.263C207.355 568.16 208.238 574.02 209.486 579.853C205.164 583.603 200.403 586.846 195.75 590.166C189.124 595.092 182.477 600.097 175.491 604.502C170.312 589.742 167.801 570.008 166.402 554.31Z" data-index="75"></path>
	<path fill="#FEFEFE" transform="scale(0.249642 0.249642)" d="M176.8 420.355C187.578 428.547 199.485 434.972 210.145 443.362C208.616 449.369 207.631 455.554 206.306 461.614L193.369 464.397C184.19 466.231 175 468.013 165.801 469.744C167.907 452.741 172.22 436.816 176.8 420.355Z" data-index="76"></path>
	<path fill="#FEFEFE" transform="scale(0.249642 0.249642)" d="M553.147 164.335C569.612 168.143 585.924 170.729 601.955 176.308C598.06 182.631 593.624 188.708 589.436 194.845C586.457 199.133 583.93 203.668 581.546 208.306C574.778 207.407 567.98 205.535 561.222 204.355C559.908 192.241 555.727 176.589 553.147 164.335Z" data-index="77"></path>
	<path fill="#FEFEFE" transform="scale(0.249642 0.249642)" d="M855.558 555.187C856.629 554.99 857.272 554.832 858.307 555.231C859.758 561.481 850.171 594.882 847.692 602.964C842.02 598.57 836.087 594.466 830.268 590.265C825.165 586.778 820.111 583.22 815.106 579.594C816.204 574.124 817.321 568.706 818.789 563.32C830.883 559.92 843.159 557.205 855.558 555.187Z" data-index="78"></path>
</svg>